<svg width="707" height="80" viewBox="0 0 707 80" fill="none" xmlns="http://www.w3.org/2000/svg">
<path d="M125.397 17.4233C119.508 17.4164 113.788 19.376 109.153 22.9876V4.60376H98.9835V43.6527C98.9764 48.8494 100.52 53.9314 103.42 58.2556C106.319 62.5798 110.444 65.9518 115.272 67.945C120.1 69.9382 125.414 70.4629 130.543 69.4528C135.671 68.4427 140.382 65.9431 144.081 62.2704C147.779 58.5976 150.299 53.9168 151.32 48.8203C152.342 43.7238 151.819 38.4406 149.819 33.6393C147.819 28.8381 144.431 24.7345 140.083 21.8479C135.736 18.9613 130.625 17.4215 125.397 17.4233V17.4233ZM125.397 59.8359C122.183 59.8448 119.038 58.9053 116.36 57.1364C113.683 55.3675 111.594 52.8487 110.358 49.8989C109.121 46.9492 108.793 43.7011 109.415 40.5658C110.037 37.4306 111.58 34.5492 113.85 32.2865C116.12 30.0238 119.014 28.4814 122.167 27.8547C125.319 27.2281 128.588 27.5452 131.558 28.766C134.529 29.9869 137.069 32.0565 138.856 34.7129C140.643 37.3693 141.597 40.493 141.597 43.6885C141.583 47.9557 139.872 52.0442 136.837 55.0624C133.802 58.0806 129.69 59.7836 125.397 59.8002V59.8359Z" fill="#14142B"/>
<path d="M210.606 46.596C210.734 45.6202 210.794 44.6368 210.786 43.6528C210.776 37.0621 208.27 30.7169 203.766 25.8803C199.262 21.0437 193.091 18.0705 186.481 17.5526C179.871 17.0347 173.308 19.01 168.097 23.0854C162.886 27.1608 159.411 33.0373 158.362 39.545C157.314 46.0528 158.769 52.7143 162.438 58.2036C166.108 63.6929 171.722 67.6072 178.164 69.1673C184.606 70.7274 191.402 69.8189 197.201 66.6226C202.999 63.4263 207.374 58.1767 209.454 51.9188H198.313C196.631 54.7538 194.117 57.0087 191.107 58.3798C188.097 59.7509 184.737 60.1725 181.479 59.5878C178.221 59.003 175.222 57.44 172.884 55.1092C170.547 52.7784 168.985 49.7917 168.407 46.5513L210.606 46.596ZM184.381 27.5054C187.532 27.5112 190.614 28.4254 193.253 30.1371C195.891 31.8487 197.974 34.2845 199.249 37.1491H169.55C170.822 34.2907 172.9 31.8593 175.532 30.1482C178.163 28.4371 181.237 27.5192 184.381 27.5054V27.5054Z" fill="#14142B"/>
<path d="M269.581 46.596C269.704 45.6198 269.765 44.6367 269.761 43.6528C269.759 37.0551 267.257 30.7001 262.754 25.8531C258.251 21.0062 252.077 18.0227 245.46 17.4969C238.844 16.971 232.271 18.9413 227.051 23.0154C221.83 27.0895 218.344 32.9686 217.288 39.4822C216.231 45.9958 217.681 52.666 221.349 58.1649C225.016 63.6637 230.633 67.5879 237.08 69.156C243.527 70.7241 250.332 69.8211 256.139 66.6269C261.947 63.4327 266.331 58.1815 268.42 51.9188H257.278C255.597 54.7538 253.082 57.0087 250.073 58.3798C247.063 59.7509 243.703 60.1725 240.445 59.5877C237.187 59.003 234.187 57.44 231.85 55.1092C229.513 52.7784 227.95 49.7917 227.372 46.5513L269.581 46.596ZM243.338 27.5054C246.484 27.5164 249.56 28.433 252.194 30.1444C254.827 31.8557 256.906 34.2886 258.178 37.1491H228.479C229.753 34.2859 231.834 31.8511 234.472 30.1395C237.109 28.4279 240.188 27.5129 243.338 27.5054V27.5054Z" fill="#14142B"/>
<path d="M73.2896 20.1786C67.6828 14.4084 59.5561 10.1949 50.4125 8.31626C38.857 5.93664 27.2654 7.6811 19.3997 13.0039C19.1949 13.1311 18.9967 13.2685 18.8058 13.4154H18.7608C17.9881 13.9534 17.2598 14.5516 16.5829 15.2046C16.1329 15.6161 15.6829 16.0277 15.3679 16.4034L15.2599 16.5197C14.6209 17.1876 14.037 17.9056 13.514 18.6667L13.154 19.1856C7.81721 26.9954 6.05328 38.4998 8.43818 50.0043C10.3281 59.0934 14.5669 67.1715 20.3717 72.7449C25.3215 77.5041 30.9373 80 36.4991 80C37.7535 80 39.0048 79.8741 40.2339 79.6243C49.2965 77.7635 55.9923 69.3543 58.0262 57.501C69.9597 55.4703 78.4194 48.8145 80.2733 39.8238C81.6052 33.2128 79.1483 26.1992 73.2896 20.1786ZM41.2869 52.2587C40.1529 52.0261 39.028 51.7488 37.912 51.4356L51.7444 37.6768C52.0594 38.7772 52.3384 39.9043 52.5724 41.0315C53.4141 44.99 53.6928 49.0463 53.4004 53.0817C49.3437 53.3712 45.2662 53.0942 41.2869 52.2587ZM18.3468 38.5803C15.6469 34.6799 14.6389 30.529 15.4399 26.6375C15.7719 25.0223 16.407 23.4836 17.3118 22.1019L17.6538 21.601C18.0946 20.9992 18.5693 20.4227 19.0758 19.8744C19.2287 19.7134 19.3817 19.5523 19.5437 19.4003C19.7057 19.2482 19.8587 19.0872 20.0297 18.9351C20.5964 18.4125 21.1977 17.9283 21.8296 17.4858L22.0726 17.3159L22.1896 17.2443C23.5916 16.3292 25.155 15.6857 26.7974 15.3478C27.6649 15.1691 28.5485 15.0791 29.4343 15.0794C32.8125 15.1639 36.0855 16.2651 38.821 18.2373L18.3468 38.5803ZM39.1359 74.7756C34.0782 75.8133 28.6514 73.881 23.8366 69.2202C18.7878 64.3446 15.0349 57.1968 13.388 49.0829C12.6719 45.6266 12.3698 42.0982 12.488 38.5714C13.5082 40.5377 14.7654 42.3732 16.2319 44.0374C16.2505 44.0604 16.2717 44.0814 16.2949 44.1L16.3489 44.1716C17.1788 45.1125 18.059 46.0084 18.9858 46.8553C20.2947 48.3191 21.8626 49.532 23.6116 50.4337C26.3337 52.2351 29.2459 53.735 32.2962 54.9067C34.8821 55.8989 37.5461 56.6768 40.2609 57.2326C43.5592 57.9117 46.9182 58.2563 50.2865 58.2614C51.0695 58.2614 51.8524 58.2614 52.6264 58.1809C50.7455 67.1715 45.7327 73.4158 39.1359 74.7756V74.7756ZM75.2245 38.8935C73.8655 45.4419 67.5838 50.4248 58.5392 52.3124C58.7398 48.1755 58.4101 44.0301 57.5582 39.9759C57.007 37.3211 56.2395 34.7152 55.2633 32.184C55.2313 32.083 55.1922 31.9843 55.1463 31.8888C53.9921 28.9165 52.5197 26.0763 50.7545 23.417C49.8508 21.684 48.63 20.1337 47.1546 18.8456C46.305 17.9249 45.4036 17.0528 44.4547 16.2334L44.4007 16.1708L44.2477 16.0455C42.5824 14.5966 40.7448 13.3558 38.776 12.3509C42.3272 12.2246 45.8807 12.525 49.3595 13.2455C57.5222 14.9184 64.7129 18.613 69.6177 23.6675C74.2885 28.4804 76.2684 33.8748 75.2245 38.8935ZM12.695 3.52124C12.5609 3.20736 12.492 2.86978 12.4924 2.52877C12.4928 2.18775 12.5625 1.85034 12.6973 1.53676C12.8321 1.22319 13.0293 0.939914 13.277 0.70395C13.5246 0.467986 13.8177 0.284191 14.1386 0.163595C14.4595 0.042999 14.8016 -0.0119124 15.1444 0.00215524C15.4871 0.0162229 15.8235 0.0989829 16.1333 0.245464C16.4431 0.391944 16.7199 0.599127 16.9472 0.854582C17.1745 1.11004 17.3475 1.4085 17.4558 1.73205L19.5077 7.15329C19.6263 7.4634 19.6822 7.79372 19.6721 8.12532C19.6621 8.45692 19.5864 8.7833 19.4493 9.08577C19.3122 9.38824 19.1164 9.66086 18.8732 9.88802C18.6299 10.1152 18.344 10.2924 18.0318 10.4096C17.7452 10.5218 17.4399 10.5795 17.1318 10.5796C16.6153 10.5795 16.111 10.4227 15.6865 10.1302C15.2619 9.83763 14.9373 9.42328 14.7559 8.94248L12.695 3.52124ZM8.09619 19.5613C7.78814 19.5612 7.48285 19.5036 7.19623 19.3913L1.74245 17.3516C1.41695 17.2439 1.1167 17.072 0.859711 16.8461C0.602722 16.6202 0.394294 16.345 0.246934 16.037C0.0995737 15.7291 0.0163203 15.3947 0.00216818 15.054C-0.011984 14.7133 0.0432571 14.3732 0.164577 14.0542C0.285898 13.7353 0.470796 13.4439 0.708176 13.1977C0.945556 12.9516 1.23053 12.7556 1.54598 12.6216C1.86144 12.4875 2.20089 12.4183 2.54395 12.4179C2.887 12.4175 3.22661 12.486 3.54238 12.6193L8.99616 14.6589C9.5554 14.8673 10.0232 15.2643 10.3178 15.7808C10.6124 16.2972 10.7151 16.9001 10.6079 17.4841C10.5007 18.0681 10.1904 18.5961 9.73128 18.9758C9.27217 19.3555 8.69342 19.5627 8.09619 19.5613V19.5613Z" fill="#14142B"/>
<path d="M283.26 69.1397V5.22998H289.344V30.1891H289.515C291.601 27.2406 294.372 24.8368 297.594 23.1826C300.816 21.5284 304.392 20.6728 308.018 20.6886C321.923 20.6886 333.568 31.2269 333.568 45.3883C333.568 59.5497 322.445 70.2669 308.018 70.2669C304.394 70.324 300.81 69.4947 297.584 67.8521C294.357 66.2095 291.587 63.8039 289.515 60.8468H289.344V69.1397H283.26ZM307.937 26.1277C297.507 26.1277 288.993 34.85 288.993 45.5582C288.961 48.068 289.428 50.5592 290.368 52.8886C291.309 55.2181 292.703 57.3397 294.471 59.1314C296.239 60.9232 298.347 62.3497 300.672 63.3288C302.996 64.3079 305.493 64.8204 308.018 64.8367C319.322 64.8367 327.484 56.4633 327.484 45.6656C327.475 34.51 319.232 26.1277 307.937 26.1277Z" fill="#14142B"/>
<path d="M346.159 47.7233C346.68 57.1344 355.374 64.8368 364.581 64.8368C371.961 64.8368 378.98 60.6054 381.608 53.6991H388.034C386.124 59.2089 382.308 63.8654 377.265 66.8385C372.223 69.8117 366.282 70.9083 360.502 69.9328C354.722 68.9573 349.479 65.9732 345.706 61.5123C341.934 57.0515 339.877 51.4039 339.904 45.5762C339.904 31.8442 351.288 20.7065 364.581 20.7065C378.827 20.7065 389.51 32.882 389.51 45.9251C389.51 46.5334 389.429 47.1328 389.429 47.7143L346.159 47.7233ZM383.273 42.2841C381.536 32.7836 373.976 26.1278 364.599 26.1278C355.734 26.1278 347.823 32.5241 346.177 42.2841H383.273Z" fill="#14142B"/>
<path d="M434.427 69.1396V42.8028C434.427 32.1751 428.001 26.1276 419.658 26.1276C410.443 26.1276 404.8 33.1233 404.8 42.3645V69.1396H398.716V21.8962H404.8V27.9436H404.971C408.013 23.3633 413.404 20.6885 419.568 20.6885C432.69 20.6885 440.511 29.6344 440.511 42.8028V69.1396H434.427Z" fill="#14142B"/>
<path d="M455.621 47.7233C456.17 57.1344 464.828 64.8368 474.044 64.8368C481.423 64.8368 488.443 60.6054 491.071 53.6991H497.497C495.587 59.2089 491.77 63.8654 486.728 66.8385C481.686 69.8117 475.745 70.9083 469.965 69.9328C464.185 68.9573 458.941 65.9732 455.169 61.5123C451.396 57.0515 449.34 51.4039 449.366 45.5762C449.366 31.8442 460.751 20.7065 474.044 20.7065C488.29 20.7065 498.982 32.882 498.982 45.9251C498.982 46.5334 498.892 47.1328 498.892 47.7143L455.621 47.7233ZM492.718 42.2841C490.981 32.7836 483.421 26.1278 474.044 26.1278C465.179 26.1278 457.268 32.5241 455.621 42.2841H492.718Z" fill="#14142B"/>
<path d="M533.117 69.1397V27.3354H517.647V69.1397H511.572V27.3354H504.183V21.8962H511.572V21.2074C511.572 7.78851 519.825 4.10278 529.814 4.10278V9.72083C522.164 9.72083 517.647 12.4046 517.647 20.8585V21.8962H539.246V69.1397H533.117ZM533.117 16.1082V5.22997H539.201V16.1082H533.117Z" fill="#14142B"/>
<path d="M597.582 55.2377C592.713 64.8187 584.982 70.2668 573.948 70.2668C559.783 70.2668 548.398 59.809 548.398 45.0482C548.398 32.0856 559.873 20.6885 573.948 20.6885C584.37 20.6885 593.667 26.4765 597.582 36.147H590.886C589.295 33.1005 586.886 30.5516 583.927 28.783C580.967 27.0144 577.572 26.0953 574.119 26.1276C571.529 26.0722 568.952 26.5317 566.543 27.479C564.133 28.4263 561.937 29.8424 560.085 31.6443C558.233 33.4462 556.761 35.5976 555.757 37.9722C554.752 40.3469 554.235 42.8971 554.235 45.4732C554.235 48.0493 554.752 50.5994 555.757 52.9741C556.761 55.3488 558.233 57.5001 560.085 59.302C561.937 61.1039 564.133 62.5201 566.543 63.4674C568.952 64.4147 571.529 64.8741 574.119 64.8188C581.319 64.8188 587.502 61.5356 590.886 55.2377H597.582Z" fill="#14142B"/>
<path d="M606.698 16.1082V5.22998H612.764V16.1082H606.698ZM606.698 69.1397V21.8963H612.764V69.1397H606.698Z" fill="#14142B"/>
<path d="M622.07 45.8176C622.07 31.9156 633.364 20.6885 646.837 20.6885C653.45 20.6885 659.794 23.3002 664.47 27.9491C669.147 32.5979 671.775 38.9032 671.775 45.4776C671.775 52.0521 669.147 58.3574 664.47 63.0062C659.794 67.6551 653.45 70.2668 646.837 70.2668C633.364 70.2668 622.07 58.9502 622.07 45.8176ZM665.691 45.2182C665.691 34.9393 657.348 26.1276 646.837 26.1276C636.496 26.1276 628.153 35.0735 628.153 45.7371C628.153 56.0965 636.586 64.8188 646.918 64.8188C657.609 64.8366 665.691 56.016 665.691 45.2182V45.2182Z" fill="#14142B"/>
<path d="M699.223 33.5261C698.872 28.9458 696.01 26.092 692.096 26.092C691.151 26.074 690.213 26.2445 689.336 26.5933C688.459 26.9421 687.661 27.4621 686.99 28.1227C686.319 28.7833 685.787 29.5709 685.428 30.4391C685.068 31.3073 684.887 32.2383 684.896 33.1772C684.896 36.6303 687.326 39.0457 693.149 40.9512C704.704 44.7532 706.963 49.3246 706.963 56.0609C706.963 64.7027 701.14 70.2312 692.015 70.2312C683.852 70.2312 677.426 64.4432 677.426 55.4615V55.1126H683.501C683.591 61.3748 686.894 64.7832 692.015 64.7832C697.495 64.7832 700.879 61.7594 700.879 56.3203C700.879 51.7489 697.927 49.2441 692.456 47.2581C684.113 44.2344 678.812 41.8905 678.812 33.7766C678.812 26.1815 684.545 20.6529 692.366 20.6529C694.074 20.6225 695.771 20.9349 697.356 21.5712C698.941 22.2075 700.38 23.1547 701.588 24.3563C702.796 25.5579 703.748 26.9892 704.387 28.5648C705.026 30.1403 705.339 31.8276 705.307 33.5261H699.223Z" fill="#14142B"/>
</svg>
